<svg xmlns="http://www.w3.org/2000/svg" viewBox="0 0 120 90" fill="none" role="img" aria-label="Grulla Comenta origami crane">
  <g fill="currentColor">
    
    <path d="M4,39 L13,31 L9,42 Z" opacity="0.88"></path>
    <path d="M13,31 L45,52 L9,42 Z" opacity="0.50"></path>
    <path d="M9,42 L45,52 L42,58 Z" opacity="0.70"></path>
    
    <path d="M45,52 L50,3 L58,56 Z" opacity="0.42"></path>
    <path d="M50,3 L61,27 L58,56 Z" opacity="0.60"></path>
    
    <path d="M61,27 L80,13 L58,56 Z" opacity="0.50"></path>
    <path d="M80,13 L86,55 L58,56 Z" opacity="0.36"></path>
    
    <path d="M45,52 L58,56 L42,58 Z" opacity="0.58"></path>
    <path d="M42,58 L58,56 L41,85 Z" opacity="0.64"></path>
    <path d="M41,85 L58,56 L62,87 Z" opacity="0.82"></path>
    <path d="M58,56 L86,55 L62,87 Z" opacity="0.56"></path>
    <path d="M86,55 L89,63 L62,87 Z" opacity="0.66"></path>
    
    <path d="M86,55 L117,36 L89,63 Z" opacity="0.40"></path>
  </g>
</svg>